<svg width="361" height="70" viewBox="0 0 361 70" fill="none" xmlns="http://www.w3.org/2000/svg">
<rect width="355" height="10" rx="5" fill="#475565"/>
<rect width="355" height="10" rx="5" fill="#475565"/>
<path d="M141.562 38.216H152.762C154.703 38.216 156.346 38.5467 157.69 39.208C159.055 39.8693 160.079 40.7867 160.762 41.96C161.466 43.1333 161.818 44.4667 161.818 45.96C161.818 48.648 161.05 50.6853 159.514 52.072C157.978 53.4373 155.695 54.12 152.666 54.12H148.602V61H141.562V38.216ZM151.45 49.16C152.581 49.16 153.434 48.8933 154.01 48.36C154.607 47.8267 154.906 47.0907 154.906 46.152C154.906 45.2133 154.607 44.4773 154.01 43.944C153.434 43.4107 152.581 43.144 151.45 43.144H148.602V49.16H151.45ZM164.562 38.216H171.602V55.368H180.786V61H164.562V38.216ZM194.118 61.704C190.79 61.704 188.198 60.9573 186.342 59.464C184.508 57.9707 183.59 55.528 183.59 52.136V38.216H190.63V52.296C190.63 53.4693 190.929 54.3867 191.526 55.048C192.124 55.688 192.977 56.008 194.086 56.008C195.196 56.008 196.06 55.688 196.678 55.048C197.297 54.3867 197.606 53.4693 197.606 52.296V38.216H204.646V52.136C204.646 55.528 203.718 57.9707 201.862 59.464C200.028 60.9573 197.446 61.704 194.118 61.704ZM217.556 61.704C216.105 61.704 214.686 61.5333 213.3 61.192C211.934 60.8507 210.686 60.36 209.556 59.72C208.425 59.0587 207.497 58.2907 206.772 57.416L210.932 53.096C211.806 53.992 212.862 54.76 214.1 55.4C215.358 56.0187 216.606 56.328 217.844 56.328C218.825 56.328 219.561 56.168 220.052 55.848C220.564 55.5067 220.82 55.08 220.82 54.568C220.82 54.2053 220.713 53.9067 220.5 53.672C220.308 53.4373 219.902 53.2133 219.284 53C218.665 52.7653 217.726 52.5307 216.468 52.296C213.481 51.7413 211.348 50.856 210.068 49.64C208.788 48.424 208.148 46.8773 208.148 45C208.148 43.4213 208.553 42.0667 209.364 40.936C210.196 39.8053 211.326 38.952 212.756 38.376C214.206 37.8 215.849 37.512 217.684 37.512C219.582 37.512 221.364 37.8213 223.028 38.44C224.692 39.0587 226.1 39.976 227.252 41.192L222.804 45.064C222.078 44.2747 221.246 43.6987 220.308 43.336C219.369 42.952 218.452 42.76 217.556 42.76C216.788 42.76 216.169 42.8987 215.7 43.176C215.23 43.4533 214.996 43.8267 214.996 44.296C214.996 44.6587 215.113 44.9467 215.348 45.16C215.582 45.3733 215.966 45.5653 216.5 45.736C217.054 45.9067 217.886 46.0987 218.996 46.312C221.897 46.888 224.073 47.7733 225.524 48.968C226.996 50.1627 227.732 51.7947 227.732 53.864C227.732 55.592 227.316 57.0427 226.484 58.216C225.673 59.3893 224.5 60.264 222.964 60.84C221.449 61.416 219.646 61.704 217.556 61.704Z" fill="#21272E"/>
</svg>
